<?xml version="1.0" encoding="utf-8"?>
<!-- Generator: Adobe Illustrator 16.0.0, SVG Export Plug-In . SVG Version: 6.00 Build 0)  -->
<!DOCTYPE svg PUBLIC "-//W3C//DTD SVG 1.1//EN" "http://www.w3.org/Graphics/SVG/1.1/DTD/svg11.dtd">
<svg version="1.1" id="Layer_1" xmlns="http://www.w3.org/2000/svg" xmlns:xlink="http://www.w3.org/1999/xlink" x="0px" y="0px"
	 width="41.582px" height="50.093px" viewBox="0 0 41.582 50.093" enable-background="new 0 0 41.582 50.093" xml:space="preserve">
<g>
	<defs>
		<rect id="SVGID_1_" y="-0.5" width="41.582" height="50.093"/>
	</defs>
	<clipPath id="SVGID_2_">
		<use xlink:href="#SVGID_1_"  overflow="visible"/>
	</clipPath>
	<path clip-path="url(#SVGID_2_)" fill="#ED6950" d="M34.822,7.365c-7.775-7.861-20.37-7.865-28.141,0
		c-7.771,7.866-7.771,20.62,0,28.485l1.403,1.421V21.123h0.006c0.066-7.035,5.734-12.74,12.699-12.74
		c7.008,0,12.706,5.771,12.706,12.861c0,7.093-5.698,12.861-12.706,12.861v-8.736c2.248,0,4.075-1.85,4.075-4.125
		c0-2.274-1.827-4.125-4.075-4.125c-2.247,0-4.075,1.851-4.075,4.125v24.764l4.038,4.086l13.948-14.106l0.121-0.137
		C42.796,27.822,42.597,15.228,34.822,7.365"/>
</g>
</svg>
