<?xml version="1.0" encoding="utf-8"?>
<!-- Generator: Adobe Illustrator 16.0.0, SVG Export Plug-In . SVG Version: 6.00 Build 0)  -->
<!DOCTYPE svg PUBLIC "-//W3C//DTD SVG 1.1//EN" "http://www.w3.org/Graphics/SVG/1.1/DTD/svg11.dtd">
<svg version="1.1" id="Layer_1" xmlns="http://www.w3.org/2000/svg" xmlns:xlink="http://www.w3.org/1999/xlink" x="0px" y="0px"
	 width="200px" height="150px" viewBox="0 0 200 150" enable-background="new 0 0 200 150" xml:space="preserve">
<g>
	<path fill="#3B9DFF" d="M182.581,82.057c2.531,2.523,4.091,6.016,4.091,9.861c0,7.702-6.251,13.953-13.954,13.953h-67.915
		c-2.558,0-4.952-0.688-7.012-1.895c-1.043-0.6-2.004-1.344-2.857-2.197c-2.522-2.521-4.083-6.014-4.083-9.861
		c0-7.702,6.241-13.943,13.952-13.943H64.777c-3.857,0-7.341-1.561-9.862-4.083c-2.531-2.53-4.091-6.015-4.091-9.87
		c0-7.703,6.25-13.944,13.954-13.944h35.617h32.297c3.855,0,7.34,1.561,9.87,4.083c2.522,2.522,4.084,6.006,4.084,9.862
		c0,7.711-6.242,13.953-13.954,13.953h40.026C176.573,77.975,180.059,79.536,182.581,82.057z"/>
	<path fill="#FFD039" d="M64.777,77.975h40.025c-7.711,0-13.952,6.241-13.952,13.943c0,3.848,1.561,7.34,4.083,9.861
		c0.853,0.854,1.814,1.598,2.857,2.197l-0.008,0.008c-8.356,10.288-21.112,16.856-35.391,16.856
		c-25.176,0-45.589-20.412-45.589-45.589c0-25.175,20.414-45.587,45.589-45.587c15.867,0,29.848,8.11,38.003,20.412H64.777
		c-7.703,0-13.954,6.242-13.954,13.944c0,3.855,1.56,7.34,4.091,9.87C57.437,76.414,60.92,77.975,64.777,77.975z"/>
	<path fill="#333333" d="M62.395,127.644c14.151,0,27.476-5.643,37.287-15.611c1.639,0.418,3.352,0.642,5.119,0.642h67.92
		c11.443,0,20.751-9.311,20.751-20.752c0-11.444-9.308-20.753-20.751-20.753h-20.54c0.818-2.228,1.266-4.635,1.266-7.144
		c0-11.443-9.309-20.752-20.752-20.752h-28.817c-9.892-12.842-25.131-20.414-41.484-20.414C33.503,22.859,10,46.363,10,75.252
		C10,104.142,33.504,127.644,62.395,127.644z M132.696,56.881c3.938,0,7.145,3.205,7.145,7.144c0,3.939-3.207,7.143-7.145,7.143
		c-3.759,0-6.807,3.046-6.807,6.805c0,3.758,3.048,6.805,6.807,6.805h40.024c3.938,0,7.143,3.204,7.143,7.144
		s-3.204,7.143-7.143,7.143h-67.92c-3.939,0-7.145-3.203-7.145-7.143s3.206-7.144,7.145-7.144c3.757,0,6.804-3.047,6.804-6.805
		c0-3.758-3.047-6.805-6.804-6.805H64.776c-3.939,0-7.144-3.204-7.144-7.143c0-3.939,3.205-7.144,7.144-7.144H132.696z
		 M62.395,36.467c7.968,0,15.574,2.436,21.936,6.805H64.776c-11.443,0-20.752,9.31-20.752,20.753
		c0,11.443,9.309,20.752,20.752,20.752h20.539c-0.819,2.228-1.266,4.634-1.266,7.144c0,4.618,1.518,8.89,4.082,12.343
		c-7.044,6.265-16.134,9.771-25.735,9.771c-21.386,0-38.785-17.398-38.785-38.784S41.009,36.467,62.395,36.467z"/>
</g>
</svg>
