<?xml version="1.0" encoding="iso-8859-1"?>
<!-- Generator: Adobe Illustrator 19.0.0, SVG Export Plug-In . SVG Version: 6.00 Build 0)  -->
<svg xmlns="http://www.w3.org/2000/svg" xmlns:xlink="http://www.w3.org/1999/xlink" version="1.1" id="Layer_1" x="0px" y="0px" viewBox="0 0 454.478 454.478" style="enable-background:new 0 0 454.478 454.478;" xml:space="preserve" width="512" height="512">
<g>
	<rect x="7.5" y="367.898" style="fill:#0FBC30;" width="439.478" height="25.499"/>
	<path style="fill:#808080;" d="M399.652,338.038c1.66,2.92,2.6,6.29,2.6,9.88c0,10.31-7.76,18.81-17.75,19.98h-4.74   c-9.99-1.17-17.74-9.67-17.74-19.98c0-3.59,0.94-6.96,2.6-9.88c3.44-6.11,9.99-10.23,17.51-10.23   C389.652,327.808,396.202,331.928,399.652,338.038z"/>
	<path style="fill:#F2F2F2;" d="M342.062,299.938v33.83c0-18.92-15.35-34.26-34.27-34.26c-6.38,0-12.35,1.74-17.46,4.77v-47.23   h13.19h38.54V299.938z"/>
	<path style="fill:#3B9DFF;" d="M414.002,308.038l-6.98,30h-7.37c-3.45-6.11-10-10.23-17.52-10.23c-7.52,0-14.07,4.12-17.51,10.23   h-22.56v-4.27v-33.83L414.002,308.038z"/>
	<path style="fill:#808080;" d="M342.062,333.768c0,1.45-0.09,2.87-0.27,4.27c-1.97,15.92-14.86,28.44-30.93,29.86h-6.14   c-17.49-1.55-31.2-16.23-31.2-34.13c0-12.55,6.74-23.52,16.81-29.49c5.11-3.03,11.08-4.77,17.46-4.77   C326.712,299.508,342.062,314.848,342.062,333.768z"/>
	<path style="fill:#FFD039;" d="M156.742,330.398c8.47,0,15.34,8.4,15.34,18.75c0,10.36-6.87,18.75-15.34,18.75   s-15.34-8.39-15.34-18.75C141.402,338.798,148.272,330.398,156.742,330.398z"/>
	<path style="fill:#EAB932;" d="M188.562,330.398c8.47,0,15.34,8.4,15.34,18.75c0,10.36-6.87,18.75-15.34,18.75h-31.82   c8.47,0,15.34-8.39,15.34-18.75c0-10.35-6.87-18.75-15.34-18.75H188.562z"/>
	<path style="fill:#FFD039;" d="M42.652,318.398c11.18,0,20.25,11.08,20.25,24.75c0,13.67-9.07,24.75-20.25,24.75   c-11.19,0-20.25-11.08-20.25-24.75C22.402,329.478,31.462,318.398,42.652,318.398z"/>
	<path style="fill:#EAB932;" d="M84.652,318.398c11.18,0,20.25,11.08,20.25,24.75c0,13.67-9.07,24.75-20.25,24.75h-42   c11.18,0,20.25-11.08,20.25-24.75c0-13.67-9.07-24.75-20.25-24.75H84.652z"/>
	<path style="fill:#3B9DFF;" d="M225.282,115.838c2.78,2.78,4.5,6.63,4.5,10.87c0,8.49-6.88,15.37-15.38,15.37h-74.86   c-2.82,0-5.46-0.76-7.73-2.08c-1.15-0.67-2.21-1.49-3.14-2.42c-2.79-2.78-4.51-6.63-4.51-10.87c0-8.49,6.89-15.38,15.38-15.38   h-44.12c-4.24,0-8.09-1.72-10.87-4.5s-4.5-6.62-4.5-10.87c0-8.49,6.88-15.38,15.37-15.38h39.27h35.6c4.25,0,8.09,1.72,10.87,4.51   c2.78,2.78,4.5,6.62,4.5,10.87c0,8.49-6.88,15.37-15.37,15.37h44.11C218.652,111.328,222.502,113.048,225.282,115.838z"/>
	<path style="fill:#FFD039;" d="M95.422,111.328h44.12c-8.49,0-15.38,6.89-15.38,15.38c0,4.24,1.72,8.09,4.51,10.87   c0.93,0.93,1.99,1.75,3.14,2.42c-9.21,11.34-23.27,18.58-39.01,18.58c-27.75,0-50.25-22.5-50.25-50.25s22.5-50.25,50.25-50.25   c17.49,0,32.9,8.94,41.89,22.5h-39.27c-8.49,0-15.37,6.89-15.37,15.38c0,4.25,1.72,8.09,4.5,10.87S91.182,111.328,95.422,111.328z"/>
	<g>
		<path style="fill:#333333;" d="M7.5,375.4h439.478c4.142,0,7.5-3.358,7.5-7.5s-3.358-7.5-7.5-7.5h-8.58v-4.5    c0-4.142-3.358-7.5-7.5-7.5s-7.5,3.358-7.5,7.5v4.5H406.76c1.909-3.751,2.992-7.99,2.992-12.479c0-0.962-0.05-1.912-0.147-2.849    c2.317-0.853,4.131-2.817,4.717-5.331l6.988-29.999c0.486-2.085,0.057-4.279-1.178-6.028c-1.235-1.749-3.159-2.887-5.287-3.126    l-31.826-3.584v-14.462c0-4.142-3.358-7.5-7.5-7.5s-7.5,3.358-7.5,7.5v12.773l-18.459-2.079v-28.693h5.267    c4.142,0,7.5-3.358,7.5-7.5s-3.358-7.5-7.5-7.5h-64.497c-4.142,0-7.5,3.358-7.5,7.5v43.26    c-10.195,7.623-16.806,19.788-16.806,33.468c0,10.112,3.614,19.395,9.616,26.629h-17.242v-4.5c0-4.142-3.358-7.5-7.5-7.5    s-7.5,3.358-7.5,7.5v4.5h-6v-4.5c0-4.142-3.358-7.5-7.5-7.5s-7.5,3.358-7.5,7.5v4.5H209.19c1.414-3.411,2.208-7.225,2.208-11.249    c0-14.474-10.246-26.249-22.84-26.249h-31.817c-12.594,0-22.84,11.775-22.84,26.249c0,4.024,0.794,7.837,2.208,11.249h-5.711v-4.5    c0-4.142-3.358-7.5-7.5-7.5s-7.5,3.358-7.5,7.5v4.5h-7.321c2.731-4.992,4.321-10.907,4.321-17.249    c0-17.782-12.448-32.249-27.749-32.249h-42c-15.301,0-27.749,14.467-27.749,32.249c0,6.342,1.59,12.256,4.321,17.249H7.5    c-4.142,0-7.5,3.358-7.5,7.5S3.358,375.4,7.5,375.4z M347.859,345.54h6.768c-0.067,0.786-0.109,1.578-0.109,2.381    c0,4.489,1.084,8.728,2.992,12.479h-17.567C343.519,356.089,346.239,351.048,347.859,345.54z M380.37,360.4    c-6.122-0.863-10.852-6.122-10.852-12.479c0-6.957,5.66-12.617,12.617-12.617s12.617,5.66,12.617,12.617    c0,6.357-4.73,11.616-10.852,12.479H380.37z M404.789,314.551l-3.21,13.78c-4.995-4.958-11.867-8.027-19.444-8.027    c-8.646,0-16.373,3.996-21.441,10.236h-11.133v-22.208L404.789,314.551z M297.831,264.544h5.693h31.037v37.198    c-7.254-6.073-16.59-9.737-26.769-9.737c-3.433,0-6.767,0.425-9.961,1.21V264.544z M281.025,333.771    c0-14.759,12.007-26.767,26.767-26.767s26.767,12.008,26.767,26.767c0,13.838-10.555,25.257-24.037,26.629h-5.459    C291.58,359.028,281.025,347.609,281.025,333.771z M196.398,349.151c0,6.097-3.59,11.249-7.84,11.249h-11.186    c1.414-3.411,2.208-7.225,2.208-11.249s-0.794-7.837-2.208-11.249h11.186C192.808,337.902,196.398,343.054,196.398,349.151z     M148.901,349.151c0-6.097,3.59-11.249,7.84-11.249s7.84,5.151,7.84,11.249s-3.59,11.249-7.84,11.249    S148.901,355.249,148.901,349.151z M97.398,343.151c0,9.35-5.838,17.249-12.749,17.249H66.078    c2.731-4.992,4.321-10.907,4.321-17.249s-1.59-12.256-4.321-17.249H84.65C91.561,325.902,97.398,333.801,97.398,343.151z     M29.901,343.151c0-9.35,5.838-17.249,12.749-17.249s12.749,7.899,12.749,17.249S49.561,360.4,42.65,360.4    S29.901,352.501,29.901,343.151z"/>
		<path style="fill:#333333;" d="M446.978,388.898H7.5c-4.142,0-7.5,3.358-7.5,7.5s3.358,7.5,7.5,7.5h439.478    c4.142,0,7.5-3.358,7.5-7.5S451.12,388.898,446.978,388.898z"/>
		<path style="fill:#333333;" d="M92.799,166.08c15.599,0,30.285-6.219,41.1-17.207c1.806,0.46,3.696,0.706,5.642,0.706h74.866    c12.613,0,22.875-10.261,22.875-22.874s-10.262-22.874-22.875-22.874h-22.64c0.903-2.456,1.396-5.109,1.396-7.874    c0-12.613-10.261-22.874-22.874-22.874h-31.765C127.622,58.925,110.825,50.58,92.799,50.58c-31.843,0-57.75,25.906-57.75,57.75    S60.956,166.08,92.799,166.08z M178.164,95.956c0,4.342-3.532,7.874-7.874,7.874c-4.142,0-7.5,3.358-7.5,7.5s3.358,7.5,7.5,7.5    h44.117c4.342,0,7.875,3.532,7.875,7.874s-3.533,7.874-7.875,7.874h-74.866c-4.342,0-7.874-3.532-7.874-7.874    s3.532-7.874,7.874-7.874c4.142,0,7.5-3.358,7.5-7.5s-3.358-7.5-7.5-7.5H95.424c-4.342,0-7.875-3.532-7.875-7.874    s3.533-7.874,7.875-7.874h74.866C174.631,88.082,178.164,91.614,178.164,95.956z M92.799,65.58c8.783,0,17.167,2.685,24.18,7.502    H95.424c-12.613,0-22.875,10.261-22.875,22.874s10.261,22.874,22.875,22.874h22.64c-0.903,2.456-1.396,5.109-1.396,7.874    c0,5.092,1.674,9.8,4.498,13.605c-7.764,6.908-17.784,10.771-28.367,10.771c-23.572,0-42.75-19.177-42.75-42.75    S69.227,65.58,92.799,65.58z"/>
		<circle style="fill:#333333;" cx="307.792" cy="333.772" r="7.5"/>
	</g>
</g>















</svg>
