<?xml version="1.0" encoding="utf-8"?>
<!-- Generator: Adobe Illustrator 16.0.0, SVG Export Plug-In . SVG Version: 6.00 Build 0)  -->
<!DOCTYPE svg PUBLIC "-//W3C//DTD SVG 1.1//EN" "http://www.w3.org/Graphics/SVG/1.1/DTD/svg11.dtd">
<svg version="1.1" id="Layer_1" xmlns="http://www.w3.org/2000/svg" xmlns:xlink="http://www.w3.org/1999/xlink" x="0px" y="0px"
	 width="512px" height="512px" viewBox="0 0 512 512" enable-background="new 0 0 512 512" xml:space="preserve">
<g>
	<rect y="474.824" fill="#0FBC30" width="512" height="28.727"/>
	<path fill="#0FBC30" d="M465.95,337.107v25.348c0,21.934-17.777,39.711-39.711,39.711c-21.923,0-39.7-17.777-39.7-39.711v-25.348
		c0-21.936,17.777-39.712,39.7-39.712c10.961,0,20.897,4.45,28.085,11.626C461.512,316.209,465.95,326.135,465.95,337.107z"/>
	<path fill="#0FBC30" d="M352.46,337.107v25.348c0,21.934-17.777,39.711-39.711,39.711c-21.935,0-39.712-17.777-39.712-39.711
		v-25.348c0-21.936,17.777-39.712,39.712-39.712c10.961,0,20.897,4.45,28.085,11.626C348.021,316.209,352.46,326.135,352.46,337.107
		z"/>
	<path fill="#0FBC30" d="M238.958,337.107v25.348c0,21.934-17.777,39.711-39.711,39.711c-21.923,0-39.7-17.777-39.7-39.711v-25.348
		c0-21.936,17.777-39.712,39.7-39.712c10.973,0,20.897,4.45,28.085,11.626C234.508,316.209,238.958,326.135,238.958,337.107z"/>
	<path fill="#0FBC30" d="M125.468,337.107v25.348c0,21.934-17.777,39.711-39.712,39.711c-21.934,0-39.711-17.777-39.711-39.711
		v-25.348c0-21.936,17.777-39.712,39.711-39.712c10.973,0,20.898,4.45,28.085,11.626
		C121.018,316.209,125.468,326.135,125.468,337.107z"/>
	<path fill="#07A521" d="M113.842,309.021c-5.935-5.926-13.74-9.984-22.457-11.222c4.209,6.304,6.67,13.878,6.67,22.033v25.349
		c0,21.934-17.777,39.711-39.711,39.711c-1.911,0-3.788-0.143-5.626-0.404c7.121,10.657,19.257,17.678,33.039,17.678
		c21.935,0,39.712-17.777,39.712-39.711v-25.348C125.468,326.135,121.018,316.209,113.842,309.021z"/>
	<path fill="#07A521" d="M227.332,309.021c-5.935-5.926-13.739-9.984-22.457-11.222c4.208,6.304,6.67,13.878,6.67,22.033v25.349
		c0,21.934-17.777,39.711-39.712,39.711c-1.911,0-3.787-0.143-5.626-0.404c7.121,10.657,19.258,17.678,33.039,17.678
		c21.934,0,39.711-17.777,39.711-39.711v-25.348C238.958,326.135,234.508,316.209,227.332,309.021z"/>
	<path fill="#07A521" d="M340.834,309.021c-5.935-5.926-13.739-9.984-22.457-11.222c4.209,6.304,6.67,13.878,6.67,22.033v25.349
		c0,21.934-17.776,39.711-39.711,39.711c-1.91,0-3.787-0.143-5.626-0.404c7.12,10.657,19.257,17.678,33.039,17.678
		c21.934,0,39.711-17.777,39.711-39.711v-25.348C352.46,326.135,348.01,316.209,340.834,309.021z"/>
	<path fill="#07A521" d="M454.324,309.021c-5.935-5.926-13.739-9.984-22.457-11.222c4.209,6.304,6.671,13.878,6.671,22.033v25.349
		c0,21.934-17.777,39.711-39.712,39.711c-1.91,0-3.787-0.143-5.626-0.404c7.121,10.657,19.258,17.678,33.039,17.678
		c21.934,0,39.711-17.777,39.711-39.711v-25.348C465.95,326.135,461.501,316.209,454.324,309.021z"/>
	<g>
		<path fill="#333333" d="M8.449,483.273h495.102c4.666,0,8.449-3.783,8.449-8.449s-3.783-8.449-8.449-8.449h-68.858v-56.52
			c22.538-4.007,39.71-23.729,39.71-47.4v-25.348c0-26.555-21.604-48.158-48.159-48.158c-26.554,0-48.158,21.604-48.158,48.158
			v25.348c0,23.671,17.171,43.394,39.709,47.4v56.52h-96.598v-56.52c22.538-4.007,39.711-23.729,39.711-47.4v-25.348
			c0-26.555-21.604-48.158-48.16-48.158c-26.554,0-48.158,21.604-48.158,48.158v25.348c0,23.671,17.171,43.394,39.709,47.4v56.52
			h-96.597v-56.52c22.538-4.007,39.709-23.729,39.709-47.4v-25.348c0-26.555-21.604-48.158-48.159-48.158
			c-26.556,0-48.16,21.604-48.16,48.158v25.348c0,23.671,17.172,43.394,39.71,47.4v56.52H94.206v-56.52
			c22.538-4.007,39.709-23.729,39.709-47.4v-25.348c0-26.555-21.604-48.158-48.159-48.158c-26.554,0-48.158,21.604-48.158,48.158
			v25.348c0,23.671,17.171,43.394,39.709,47.4v56.52H8.449c-4.666,0-8.449,3.783-8.449,8.449S3.783,483.273,8.449,483.273z
			 M394.983,362.455v-25.348c0-17.237,14.023-31.26,31.26-31.26s31.261,14.023,31.261,31.26v25.348
			c0,17.237-14.024,31.26-31.261,31.26S394.983,379.691,394.983,362.455z M281.487,362.455v-25.348
			c0-17.237,14.023-31.26,31.26-31.26c17.238,0,31.262,14.023,31.262,31.26v25.348c0,17.237-14.023,31.26-31.262,31.26
			C295.511,393.715,281.487,379.691,281.487,362.455z M167.991,362.455v-25.348c0-17.237,14.024-31.26,31.261-31.26
			c17.237,0,31.26,14.023,31.26,31.26v25.348c0,17.237-14.023,31.26-31.26,31.26C182.015,393.715,167.991,379.691,167.991,362.455z
			 M54.497,362.455v-25.348c0-17.237,14.023-31.26,31.26-31.26c17.237,0,31.26,14.023,31.26,31.26v25.348
			c0,17.237-14.023,31.26-31.26,31.26C68.52,393.715,54.497,379.691,54.497,362.455z"/>
		<path fill="#333333" d="M503.551,495.102H8.449c-4.666,0-8.449,3.782-8.449,8.449C0,508.217,3.783,512,8.449,512h495.102
			c4.666,0,8.449-3.783,8.449-8.449C512,498.884,508.217,495.102,503.551,495.102z"/>
		<circle fill="#333333" cx="78.96" cy="340.997" r="8.449"/>
		<circle fill="#333333" cx="93.121" cy="365.939" r="8.449"/>
		<circle fill="#333333" cx="318.907" cy="335.928" r="8.449"/>
		<circle fill="#333333" cx="436.138" cy="372.698" r="8.449"/>
		<circle fill="#333333" cx="410.554" cy="357.265" r="8.449"/>
		<circle fill="#333333" cx="307.721" cy="369.318" r="8.449"/>
		<circle fill="#333333" cx="187.741" cy="347.351" r="8.449"/>
		<circle fill="#333333" cx="442.721" cy="332.883" r="8.449"/>
	</g>
</g>
<rect x="500.167" y="466.375" fill="#333333" width="11.833" height="16.898"/>
<rect x="502.833" y="495.102" fill="#333333" width="9.167" height="16.898"/>
<rect y="466.375" fill="#333333" width="8.449" height="16.898"/>
<rect y="495.262" fill="#333333" width="8.125" height="16.738"/>
</svg>
