<?xml version="1.0" encoding="utf-8"?>
<!-- Generator: Adobe Illustrator 16.0.0, SVG Export Plug-In . SVG Version: 6.00 Build 0)  -->
<!DOCTYPE svg PUBLIC "-//W3C//DTD SVG 1.1//EN" "http://www.w3.org/Graphics/SVG/1.1/DTD/svg11.dtd">
<svg version="1.1" id="Layer_1" xmlns="http://www.w3.org/2000/svg" xmlns:xlink="http://www.w3.org/1999/xlink" x="0px" y="0px"
	 width="40px" height="40px" viewBox="0 0 40 40" enable-background="new 0 0 40 40" xml:space="preserve">
<g>
	<defs>
		<rect id="SVGID_1_" x="-23.889" y="-8.107" width="91.706" height="61.72"/>
	</defs>
	<clipPath id="SVGID_2_">
		<use xlink:href="#SVGID_1_"  overflow="visible"/>
	</clipPath>
	<path clip-path="url(#SVGID_2_)" fill="#F4B37B" d="M25.766,28.082L25.168,23.3c-0.064-0.511-0.414-0.938-0.9-1.102l-2.709-0.903
		c-0.229-0.077-0.473,0.045-0.555,0.26l-0.67-0.222c-0.362-0.123-0.607-0.462-0.607-0.844v-1.437l1.917-0.799
		c0.994-0.414,1.641-1.384,1.641-2.462v-0.445c0.738,0,1.336-0.597,1.336-1.334c0-0.352-0.137-0.672-0.359-0.91
		c0.225-1.27,0.779-4.854,0.359-7.097C24.367,4.67,23.73,3.78,23.73,3.78s-3.337,0.111-5.784,0.89l-0.445-0.89
		c0,0-4.92,0-6.227,2.223v0.002c0,0-2.225-0.019-2.225,2.668c0,0.983,0.549,3.439,0.784,4.449c-0.21,0.236-0.339,0.547-0.339,0.889
		c0,0.737,0.599,1.334,1.335,1.334v0.445c0,1.078,0.647,2.048,1.642,2.462l1.917,0.799v1.437c0,0.382-0.246,0.721-0.608,0.844
		l-0.67,0.222c-0.083-0.215-0.325-0.337-0.554-0.26l-2.708,0.903C9.359,22.361,9.01,22.789,8.946,23.3l0.073,4.782
		c-0.099,0.795-0.15,1.498,0.653,1.498l14.77,4.571C25.244,34.151,25.863,28.877,25.766,28.082"/>
	<path clip-path="url(#SVGID_2_)" fill="#37B34A" d="M12.83,34.543l8.453-0.423V21.647c-0.189,0.089-0.36,0.277-0.472,0.554
		c-0.788,1.953-2.174,2.443-3.754,2.443c-1.581,0-2.967-0.49-3.754-2.443c-0.112-0.276-0.281-0.465-0.472-0.554V34.543z"/>
	<path clip-path="url(#SVGID_2_)" fill="#E2A072" d="M14.388,19.016v1.473c0,0.316-0.168,0.602-0.431,0.761
		c3.544,0.613,5.572-1.991,5.756-2.234H14.388z"/>
	<path clip-path="url(#SVGID_2_)" fill="#6E453A" d="M9.939,13.567L23.73,3.78c0,0,0.637,0.89,0.889,2.225
		c0.52,2.765-0.445,7.562-0.445,7.562H9.939z"/>
	<path clip-path="url(#SVGID_2_)" fill="#5E352F" d="M17.501,3.78c0,0-4.92,0-6.227,2.223v0.002c0,0-2.225-0.019-2.225,2.668
		c0,1.252,0.89,4.894,0.89,4.894S19.412,9.36,23.73,3.78c0,0-3.337,0.111-5.784,0.89L17.501,3.78z"/>
	<path clip-path="url(#SVGID_2_)" fill="#FCC98D" d="M23.283,12.677v-0.891c0-1.229-0.994-2.224-2.223-2.224h-8.007
		c-1.229,0-2.225,0.996-2.225,2.224v0.891c-0.737,0-1.335,0.598-1.335,1.334c0,0.737,0.599,1.334,1.335,1.334v0.445
		c0,1.078,0.647,2.048,1.642,2.462l2.875,1.199c0.542,0.226,1.123,0.343,1.71,0.343s1.169-0.117,1.71-0.343l2.875-1.199
		c0.994-0.414,1.641-1.384,1.641-2.462v-0.445c0.738,0,1.336-0.597,1.336-1.334C24.619,13.275,24.021,12.677,23.283,12.677"/>
	<path clip-path="url(#SVGID_2_)" fill="#644034" d="M13.943,14.456c-0.245,0-0.445-0.2-0.445-0.444v-0.445
		c0-0.244,0.2-0.444,0.445-0.444s0.445,0.2,0.445,0.444v0.445C14.388,14.256,14.188,14.456,13.943,14.456"/>
	<path clip-path="url(#SVGID_2_)" fill="#644034" d="M20.169,14.456c-0.242,0-0.443-0.2-0.443-0.444v-0.445
		c0-0.244,0.201-0.444,0.443-0.444c0.246,0,0.445,0.2,0.445,0.444v0.445C20.615,14.256,20.416,14.456,20.169,14.456"/>
	<path clip-path="url(#SVGID_2_)" fill="#E2A072" d="M17.057,17.582c-0.79,0-1.531-0.194-2.029-0.535
		c-0.205-0.138-0.256-0.413-0.119-0.618c0.139-0.202,0.416-0.253,0.617-0.116c0.351,0.237,0.923,0.38,1.53,0.38
		c0.608,0,1.18-0.143,1.529-0.38c0.204-0.14,0.48-0.086,0.618,0.116c0.137,0.205,0.084,0.48-0.119,0.618
		C18.588,17.388,17.848,17.582,17.057,17.582"/>
	<path clip-path="url(#SVGID_2_)" fill="#F4B37B" d="M21.061,10.896V9.563h-8.007c-0.154,0-0.302,0.017-0.445,0.047V9.608
		c-1.016,0.206-1.779,1.104-1.779,2.178v0.891c-0.737,0-1.335,0.598-1.335,1.334c0,0.737,0.599,1.334,1.335,1.334v0.445
		c0,1.078,0.647,2.048,1.642,2.462l2.875,1.199c0.14,0.059,0.284,0.11,0.429,0.152c-1.271-0.929-2.116-1.74-2.612-2.272
		c-0.359-0.387-0.555-0.896-0.555-1.425v-4.608C14.01,10.651,16.998,9.718,21.061,10.896"/>
	<path clip-path="url(#SVGID_2_)" fill="#89BD69" d="M21.83,21.385c-0.379-0.125-0.805,0.01-1.018,0.345
		c-0.789,1.243-2.175,2.069-3.755,2.069c-1.581,0-2.967-0.826-3.754-2.069c-0.214-0.335-0.639-0.47-1.017-0.345l-0.145,0.048
		c0.812,1.911,2.709,3.255,4.917,3.255c2.209,0,4.105-1.344,4.916-3.255L21.83,21.385z"/>
	<path clip-path="url(#SVGID_2_)" fill="#90278E" d="M16.318,32.237l-3.183-10.589c-0.043-0.271-0.319-0.44-0.58-0.354l-2.708,0.903
		c-0.489,0.163-0.84,0.591-0.902,1.102l0.611,4.782c0.702,3.54,1.256,5.508,2.06,5.508L16.318,32.237z"/>
	<path clip-path="url(#SVGID_2_)" fill="#90278E" d="M19.726,34.153l1.254-12.505c0.042-0.271,0.317-0.44,0.579-0.354l2.709,0.903
		c0.486,0.163,0.836,0.591,0.9,1.102l0.598,4.782c0.098,0.795-0.521,6.071-1.324,6.071H19.726z"/>
	<path clip-path="url(#SVGID_2_)" fill="#652D90" d="M24.9,22.65c0.141,0.188,0.238,0.406,0.268,0.649l0.598,4.782
		c0.098,0.795-0.521,6.069-1.324,6.069h-2.492v-7.126c0-0.648,0.234-1.272,0.662-1.758L24.9,22.65z"/>
	<path clip-path="url(#SVGID_2_)" fill="#FFC84A" d="M25.729,27.779"/>
	<path clip-path="url(#SVGID_2_)" fill="#6E453A" d="M17.835,9.452c1.361,0.243,2.87,0.919,3.671,2.335c0,0,0.133-1.298-0.186-2.335
		H17.835z"/>
	<path clip-path="url(#SVGID_2_)" fill="#652D90" d="M9.213,22.65C9.07,22.838,8.975,23.057,8.946,23.3l0.104,6.923
		c-0.099,0.798-0.18-0.643,0.623-0.643h2.492v-2.555c0-0.648-0.235-1.272-0.661-1.758L9.213,22.65z"/>
	<path clip-path="url(#SVGID_2_)" fill="#D4DBEB" d="M36.063,29.833H19.828c-0.894,0-1.621-0.727-1.621-1.622v-9.742
		c0-0.896,0.727-1.623,1.621-1.623h16.235c0.898,0,1.623,0.727,1.623,1.623v9.742C37.686,29.106,36.961,29.833,36.063,29.833"/>
	<path clip-path="url(#SVGID_2_)" fill="#AEB8D1" d="M31.193,33.621l-0.957-7.18c-0.072-0.536-0.533-0.937-1.074-0.937h-2.434
		c-0.543,0-1.002,0.4-1.074,0.937l-0.955,7.18v1.083h6.494V33.621z"/>
	<path clip-path="url(#SVGID_2_)" fill="#FFFFFF" d="M27.947,21.176c0.596,0,1.08,0.482,1.08,1.08c0,0.599-0.484,1.084-1.08,1.084
		c-0.6,0-1.082-0.485-1.082-1.084C26.865,21.658,27.348,21.176,27.947,21.176"/>
	<path clip-path="url(#SVGID_2_)" fill="#652D90" d="M18.21,31.698h-5.411c-0.299,0-0.541-0.242-0.541-0.542v-2.573
		c0-0.433-0.172-0.846-0.476-1.147l-2.467-2.467c-0.191,0.281-0.305,0.615-0.305,0.974v6.297c0,1.198,0.968,2.167,2.164,2.167h1.083
		h7.575V33.32C19.833,32.427,19.106,31.698,18.21,31.698"/>
	<path clip-path="url(#SVGID_2_)" fill="#E5AF79" d="M16.587,31.698h1.623c0.896,0,1.624,0.729,1.624,1.622v1.086h-3.246V31.698z"/>
	<path clip-path="url(#SVGID_2_)" fill="#F4DBB3" d="M33.873,36.299H5.283c-0.282,0-0.511-0.242-0.511-0.541v-1.081
		c0-0.3,0.229-0.542,0.511-0.542h28.59c0.281,0,0.508,0.242,0.508,0.542v1.081C34.381,36.057,34.154,36.299,33.873,36.299"/>
</g>
</svg>
