<?xml version="1.0" encoding="utf-8"?>
<!-- Generator: Adobe Illustrator 16.0.0, SVG Export Plug-In . SVG Version: 6.00 Build 0)  -->
<!DOCTYPE svg PUBLIC "-//W3C//DTD SVG 1.1//EN" "http://www.w3.org/Graphics/SVG/1.1/DTD/svg11.dtd">
<svg version="1.1" id="Layer_1" xmlns="http://www.w3.org/2000/svg" xmlns:xlink="http://www.w3.org/1999/xlink" x="0px" y="0px"
	 width="200px" height="150px" viewBox="0 0 200 150" enable-background="new 0 0 200 150" xml:space="preserve">
<circle fill="#4A5058" cx="35.219" cy="85.03" r="10.219"/>
<path opacity="0.15" enable-background="new    " d="M44.167,80.088c-6.699,2.067-12.339,6.545-15.908,12.421
	c1.825,1.7,4.271,2.741,6.962,2.741c5.645,0,10.22-4.576,10.22-10.22C45.44,83.237,44.977,81.553,44.167,80.088z"/>
<path fill="#4A5058" d="M115.1,130.692l-2.803-11.444c-1.53-6.254-7.843-10.083-14.098-8.552l0,0
	c-6.254,1.531-10.083,7.844-8.551,14.098l5.069,20.705c0.67,2.738,3.432,4.413,6.169,3.743l21.914-5.365
	c2.206-0.54,3.556-2.766,3.016-4.972C124.592,133.896,120.049,130.574,115.1,130.692z"/>
<path opacity="0.2" enable-background="new    " d="M115.117,130.633l-2.885-11.424c-1.576-6.242-7.916-10.026-14.159-8.449l0,0
	c-6.243,1.576-10.025,7.915-8.449,14.158l5.219,20.669c0.69,2.732,3.464,4.388,6.196,3.698l21.875-5.523
	c2.201-0.557,3.535-2.792,2.979-4.994C124.632,133.768,120.066,130.479,115.117,130.633z"/>
<path opacity="0.15" enable-background="new    " d="M102.605,109.146L102.605,109.146c-6.438,0-11.658,5.22-11.658,11.659v12.454
	c9.689-0.378,18.184-5.407,23.305-12.924C114.007,114.113,108.889,109.146,102.605,109.146z"/>
<path fill="#E8E8E8" d="M87.32,129.331H50.145c-11.675,0-21.14-9.465-21.14-21.14l0,0c0-15.688,12.718-28.406,28.406-28.406h41.591
	c9.896,0,17.918,8.022,17.918,17.918v2.027C116.92,116.078,103.668,129.331,87.32,129.331z"/>
<path fill="#4A5058" d="M87.52,133.586l9.172-51.998l-12.821-2.261c-5.601-0.988-10.942,2.75-11.93,8.351l-9.04,51.248
	c-0.49,2.775,1.364,5.421,4.139,5.911l22.188,3.913c2.273,0.401,4.426-1.137,4.81-3.413C94.886,140.29,92.074,135.462,87.52,133.586
	z"/>
<path opacity="0.1" enable-background="new    " d="M99.002,79.785H59.975c7.656,18.5,27.676,31.699,51.17,31.699
	c1.138,0,2.267-0.035,3.388-0.096c1.535-3.578,2.388-7.518,2.388-11.658v-2.027C116.92,87.807,108.898,79.785,99.002,79.785z"/>
<circle fill="#4A5058" cx="157.091" cy="20.687" r="17.909"/>
<circle fill="#EDBCB9" cx="157.091" cy="20.687" r="7.707"/>
<ellipse fill="#E8E8E8" cx="116.922" cy="57.323" rx="54.496" ry="48.386"/>
<path fill="#EDBCB9" d="M133.82,70.321c-1.917,0-3.472-1.554-3.472-3.472c0,1.917-1.554,3.472-3.472,3.472
	c-0.758,0-1.457-0.246-2.029-0.659v6.319c0,3.037,2.463,5.5,5.501,5.5s5.501-2.463,5.501-5.5v-6.319
	C135.279,70.075,134.579,70.321,133.82,70.321z"/>
<path fill="#D46D59" d="M130.349,76.875c-1.975,0-3.767,0.452-5.09,1.188c0.821,2.004,2.789,3.418,5.09,3.418
	s4.27-1.414,5.091-3.418C134.115,77.328,132.324,76.875,130.349,76.875z"/>
<g>
	<path fill="#4A5058" d="M133.82,72.711c-1.298,0-2.499-0.424-3.472-1.141c-0.972,0.717-2.173,1.141-3.472,1.141
		c-3.232,0-5.861-2.629-5.861-5.862c0-1.32,1.07-2.39,2.391-2.39c1.319,0,2.39,1.07,2.39,2.39c0,0.596,0.485,1.081,1.081,1.081
		s1.081-0.485,1.081-1.081c0-1.32,1.069-2.39,2.39-2.39s2.391,1.07,2.391,2.39c0,0.596,0.485,1.081,1.082,1.081
		c0.596,0,1.08-0.485,1.08-1.081c0-1.32,1.07-2.39,2.391-2.39s2.391,1.07,2.391,2.39C139.682,70.082,137.053,72.711,133.82,72.711z"
		/>
	<path fill="#4A5058" d="M137.367,56.044l-1.634,1.945c-2.81,3.346-7.958,3.346-10.767,0l-1.633-1.945
		c-0.842-1.002-0.129-2.531,1.18-2.531h11.674C137.496,53.513,138.208,55.042,137.367,56.044z"/>
	<path fill="#4A5058" d="M88.165,8.022c-6.994-6.995-18.334-6.995-25.33,0c-6.995,6.994-6.995,18.335,0,25.33
		c6.994,6.995,15.531,4.19,22.525-2.805C92.355,23.553,95.159,15.016,88.165,8.022z"/>
</g>
<circle fill="#EDBCB9" cx="75.499" cy="20.687" r="7.707"/>
<g>
	<path fill="#4A5058" d="M83.951,55.004c-4.531,4.531-4.531,11.877,0,16.408c4.531,4.531,11.876,4.531,16.408,0l7.669-7.668
		c4.531-4.531,4.531-11.877,0-16.408c-4.531-4.531-11.877-4.531-16.408,0L83.951,55.004z"/>
	<path fill="#4A5058" d="M170.854,50.359l-3.024-3.024c-4.53-4.531-11.877-4.531-16.407,0c-4.531,4.531-4.531,11.877,0,16.408
		l7.668,7.668c2.383,2.382,5.542,3.51,8.662,3.387c2.365-5.42,3.666-11.313,3.666-17.475
		C171.418,54.958,171.223,52.634,170.854,50.359z"/>
</g>
<g>
	<path fill="#FFFFFF" d="M99.824,59.763c-1.32,0-2.39-1.07-2.39-2.391v-3.56c0-1.32,1.07-2.39,2.39-2.39
		c1.321,0,2.391,1.07,2.391,2.39v3.56C102.215,58.693,101.145,59.763,99.824,59.763z"/>
	<path fill="#FFFFFF" d="M162.696,58.94c-1.321,0-2.391-1.07-2.391-2.39c0-0.376-0.306-0.681-0.681-0.681s-0.681,0.305-0.681,0.681
		c0,1.32-1.07,2.39-2.391,2.39s-2.39-1.07-2.39-2.39c0-3.012,2.449-5.462,5.461-5.462s5.461,2.45,5.461,5.462
		C165.086,57.87,164.017,58.94,162.696,58.94z"/>
</g>
<path fill="#4A5058" d="M52.322,132.586v-11.782c0-6.438-5.22-11.659-11.659-11.659c-6.439,0-11.659,5.221-11.659,11.659v21.317
	c0,2.818,2.284,5.103,5.102,5.103h22.562c2.271,0,4.112-1.841,4.112-4.112C60.78,137.955,57.159,133.648,52.322,132.586z"/>
</svg>
